REM GENRE Nederpop
REM DATE 1987
REM DISCID 910B940B
REM COMMENT "ExactAudioCopy v0.99pb5"
PERFORMER "Frank Boeijen Groep"
TITLE "Welkom In Utopia"
FILE "01 Welkom In Utopia I.wav" WAVE
  TRACK 01 AUDIO
    TITLE "Welkom In Utopia I"
    PERFORMER "Frank Boeijen Groep"
    INDEX 01 00:00:00
FILE "02 Hier Komt De Storm.wav" WAVE
  TRACK 02 AUDIO
    TITLE "Hier Komt De Storm"
    PERFORMER "Frank Boeijen Groep"
    INDEX 01 00:00:00
FILE "03 De Wind Nam Hem Mee.wav" WAVE
  TRACK 03 AUDIO
    TITLE "De Wind Nam Hem Mee"
    PERFORMER "Frank Boeijen Groep"
    INDEX 01 00:00:00
  TRACK 04 AUDIO
    TITLE "De Tijden"
    PERFORMER "Frank Boeijen Groep"
    INDEX 00 05:27:00
FILE "04 De Tijden.wav" WAVE
    INDEX 01 00:00:00
FILE "05 Niemand Heeft Gelijk.wav" WAVE
  TRACK 05 AUDIO
    TITLE "Niemand Heeft Gelijk"
    PERFORMER "Frank Boeijen Groep"
    INDEX 01 00:00:00
  TRACK 06 AUDIO
    TITLE "Mantel Der Liefde"
    PERFORMER "Frank Boeijen Groep"
    INDEX 00 04:10:37
FILE "06 Mantel Der Liefde.wav" WAVE
    INDEX 01 00:00:00
  TRACK 07 AUDIO
    TITLE "Winter In Hamburg"
    PERFORMER "Frank Boeijen Groep"
    INDEX 00 03:39:25
FILE "07 Winter In Hamburg.wav" WAVE
    INDEX 01 00:00:00
  TRACK 08 AUDIO
    TITLE "Kleine Blonde Prinses"
    PERFORMER "Frank Boeijen Groep"
    INDEX 00 05:18:25
FILE "08 Kleine Blonde Prinses.wav" WAVE
    INDEX 01 00:00:00
FILE "09 De Oorlog Der Liefde.wav" WAVE
  TRACK 09 AUDIO
    TITLE "De Oorlog Der Liefde"
    PERFORMER "Frank Boeijen Groep"
    INDEX 01 00:00:00
FILE "10 Vrienden Onder Elkaar.wav" WAVE
  TRACK 10 AUDIO
    TITLE "Vrienden Onder Elkaar"
    PERFORMER "Frank Boeijen Groep"
    INDEX 01 00:00:00
FILE "11 Welkom In Utopia II.wav" WAVE
  TRACK 11 AUDIO
    TITLE "Welkom In Utopia II"
    PERFORMER "Frank Boeijen Groep"
    INDEX 01 00:00:00
